<svg xmlns="http://www.w3.org/2000/svg" xmlns:xlink="http://www.w3.org/1999/xlink" version="1.1" x="0px" y="0px" viewBox="0 0 90 112.5" enable-background="new 0 0 90 90" xml:space="preserve">
<path d="M76,7.746V2h-3v21.17l-5.568-5.327l-2.417,2.297l6.823,6.883l-7.641,7.611l-3.97-3.955l-2.304,2.297l3.83,3.955L55,43.558  V39h-3v7h-6.264H39v-7h-3v4.559l-6.627-6.747l3.897-3.836l-2.266-2.297l-3.821,3.836l-7.484-7.492l6.888-6.883l-2.277-2.297  L19,23.171V2h-3v5.747l-5.469-5.329L8.305,4.715L16,12.34v15.288L34.091,46H22.177c0,7,8.592,7,8.592,7h4.964L29.05,78.591  l16.992,9.645l17.183-9.718L56.161,52h4.582c0,0,9.355,1,9.355-6H57.394L76,27.628V12.34l7.508-7.625L81.27,2.418L76,7.746z   M59.5,77.272l-13.441,7.475L32.5,77.272l4.632-17.867l4.29,14.605c0,0,0.717,2.325,4.637,2.325s4.518-2.325,4.518-2.325  l4.231-14.605L59.5,77.272z"/>
<text x="0" y="105" fill="#000000" font-size="5px" font-weight="bold" font-family="'Helvetica Neue', Helvetica, Arial-Unicode, Arial, Sans-serif">Created by Callum Taylor</text><text x="0" y="110" fill="#000000" font-size="5px" font-weight="bold" font-family="'Helvetica Neue', Helvetica, Arial-Unicode, Arial, Sans-serif">
from the Noun Project</text>
</svg>